<svg xmlns="http://www.w3.org/2000/svg"  viewBox="0 0 48 48" width="512px" height="512px"><path fill="#eb7900" d="M38.101,9.818c-3.444-3.443-7.831-5.353-12.328-5.76C27.788,6.674,29,9.942,29,13.5	C29,22.06,22.06,29,13.5,29c-3.559,0-6.827-1.212-9.444-3.229c0.406,4.499,2.317,8.887,5.76,12.331c7.81,7.811,20.474,7.81,28.284,0	C45.912,30.292,45.912,17.629,38.101,9.818z"/><path fill="#f5bc00" d="M25.783,4.072C27.793,6.686,29,9.948,29,13.5C29,22.06,22.06,29,13.5,29	c-3.552,0-6.814-1.207-9.428-3.216C6.261,32.859,12.855,38,20.649,38C30.232,38,38,30.232,38,20.649	C38,12.855,32.859,6.261,25.783,4.072z"/></svg>